  <svg viewBox="0 0 1200 200">
    <path d="M50 150V50 M50 100H100 M100 150V50" /> <!-- H -->
    <path d="M130 150V100 Q130 80 150 80 Q170 80 170 100 Q170 120 150 120 Q130 120 130 100" /> <!-- e -->
    <path d="M200 150V100 Q200 80 220 80 Q240 80 240 100 Q240 120 220 120 Q200 120 200 100" /> <!-- l -->
    <path d="M270 150V100 Q270 80 290 80 Q310 80 310 100 Q310 120 290 120 Q270 120 270 100" /> <!-- l -->
    <path d="M340 120 Q360 150 380 120 Q400 90 380 60 Q360 30 340 60 Q320 90 340 120" /> <!-- o -->
    
    <path d="M430 150H450" /> <!-- space -->
    
    <path d="M480 150V50" /> <!-- W left -->
    <path d="M480 150L500 100L520 150L540 50" /> <!-- W right -->
    <path d="M570 150V100 Q570 80 590 80 Q610 80 610 100 Q610 120 590 120 Q570 120 570 100" /> <!-- o -->
    <path d="M640 150V100 Q640 80 660 80 Q680 80 680 100 Q680 120 660 120 Q640 120 640 100" /> <!-- r -->
    <path d="M710 150V100 Q710 80 730 80 Q750 80 750 100 Q750 120 730 120 Q710 120 710 100" /> <!-- l -->
    <path d="M780 150V100 Q780 80 800 80 Q820 80 820 100 Q820 120 800 120 Q780 120 780 100" /> <!-- d -->
  </svg>